<svg xmlns="http://www.w3.org/2000/svg" xmlns:xlink="http://www.w3.org/1999/xlink" viewBox="0 0 676.2 357.6"><defs><style>.cls-1{fill:none;}.cls-2{fill:#bc280b;}.cls-3{clip-path:url(#clip-path);}.cls-4{fill:url(#linear-gradient);}.cls-5{fill:url(#linear-gradient-2);}.cls-6{fill:url(#linear-gradient-3);}.cls-7{fill:url(#linear-gradient-4);}.cls-8{fill:url(#linear-gradient-5);}.cls-9{fill:url(#linear-gradient-6);}.cls-10{fill:url(#linear-gradient-7);}.cls-11{fill:url(#linear-gradient-8);}.cls-12{fill:url(#linear-gradient-9);}.cls-13{fill:url(#linear-gradient-10);}.cls-14{fill:url(#linear-gradient-11);}.cls-15{fill:url(#linear-gradient-12);}.cls-16{fill:url(#linear-gradient-13);}.cls-17{fill:url(#linear-gradient-14);}.cls-18{fill:url(#linear-gradient-15);}.cls-19{fill:url(#linear-gradient-16);}.cls-20{fill:url(#linear-gradient-17);}.cls-21{fill:url(#linear-gradient-18);}.cls-22{fill:url(#linear-gradient-19);}.cls-23{fill:url(#linear-gradient-20);}.cls-24{fill:url(#linear-gradient-21);}.cls-25{fill:url(#linear-gradient-22);}.cls-26{fill:url(#linear-gradient-23);}.cls-27{fill:url(#linear-gradient-24);}.cls-28{fill:url(#linear-gradient-25);}.cls-29{fill:url(#linear-gradient-26);}.cls-30{fill:url(#linear-gradient-27);}.cls-31{fill:url(#linear-gradient-28);}</style><clipPath id="clip-path"><path id="SVGID" class="cls-1" d="M310.3,152v-.4c3.3-2.1,8.6-6.4,8.6-12.9,0-11.8-8.3-19-20.8-19H281.4L337.8.3H0L69.7,147.7V118.6l37.2,26.9,37.2-26.9v70.8H125.2V156.7h-.6l-17.8,12.9L89.1,156.8h-.6l.1,30.8,80.2,169.6,79.5-167.8H208l-.1-70h0l19.1-.1.1,52.9,29.2.1,10.2-21.6v38.6h34.7c12.6,0,21.5-8.1,21.5-20.9.1-8.8-5.7-13.6-12.4-16.4M201.7,136.9h-29V146h21.2v17H172.7v9.1h29v17.4H153.8V119.4h47.9Zm83.9-1.4h10.2c2.4,0,4.6,3,4.6,5.5s-2.1,5.6-4.6,5.6H285.7V135.5Zm11.5,38.3H285.6V159.7h11.5c3.4,0,6.1,3.3,6.1,7.1.1,3.3-2.6,7-6.1,7"/></clipPath><linearGradient id="linear-gradient" x1="479.21" y1="145.92" x2="552.93" y2="145.92" gradientTransform="matrix(1, 0, 0, -1, 0, 322.97)" gradientUnits="userSpaceOnUse"><stop offset="0.14" stop-color="#e41513"/><stop offset="1" stop-color="#f0847c"/></linearGradient><linearGradient id="linear-gradient-2" x1="443.92" y1="322.97" x2="497.95" y2="322.97" gradientTransform="matrix(1, 0, 0, -1, 0, 322.97)" gradientUnits="userSpaceOnUse"><stop offset="0.14" stop-color="#a91f21"/><stop offset="1" stop-color="#e62e2b"/></linearGradient><linearGradient id="linear-gradient-3" x1="442.1" y1="105.47" x2="496.13" y2="105.47" xlink:href="#linear-gradient"/><linearGradient id="linear-gradient-4" x1="235.76" y1="246.07" x2="354.63" y2="246.07" xlink:href="#linear-gradient"/><linearGradient id="linear-gradient-5" x1="248.6" y1="89.67" x2="323" y2="89.67" xlink:href="#linear-gradient"/><linearGradient id="linear-gradient-6" x1="235.75" y1="215.47" x2="354.63" y2="215.47" xlink:href="#linear-gradient"/><linearGradient id="linear-gradient-7" x1="248.61" y1="215.47" x2="323.01" y2="215.47" xlink:href="#linear-gradient"/><linearGradient id="linear-gradient-8" x1="347.42" y1="79.42" x2="548.3" y2="79.42" xlink:href="#linear-gradient"/><linearGradient id="linear-gradient-9" x1="347.42" y1="220.02" x2="548.3" y2="220.02" xlink:href="#linear-gradient"/><linearGradient id="linear-gradient-10" x1="347.43" y1="302.32" x2="548.3" y2="302.32" xlink:href="#linear-gradient"/><linearGradient id="linear-gradient-11" x1="347.42" y1="234.22" x2="548.3" y2="234.22" xlink:href="#linear-gradient"/><linearGradient id="linear-gradient-12" x1="479.21" y1="275.62" x2="552.93" y2="275.62" xlink:href="#linear-gradient"/><linearGradient id="linear-gradient-13" x1="347.41" y1="275.62" x2="548.3" y2="275.62" xlink:href="#linear-gradient"/><linearGradient id="linear-gradient-14" x1="479.21" y1="315.32" x2="552.94" y2="315.32" xlink:href="#linear-gradient"/><linearGradient id="linear-gradient-15" x1="347.41" y1="315.32" x2="548.31" y2="315.32" xlink:href="#linear-gradient"/><linearGradient id="linear-gradient-16" x1="442.11" y1="240.12" x2="496.13" y2="240.12" xlink:href="#linear-gradient"/><linearGradient id="linear-gradient-17" x1="347.43" y1="240.12" x2="548.3" y2="240.12" xlink:href="#linear-gradient"/><linearGradient id="linear-gradient-18" x1="479.21" y1="294.92" x2="552.93" y2="294.92" xlink:href="#linear-gradient"/><linearGradient id="linear-gradient-19" x1="442.11" y1="294.92" x2="496.14" y2="294.92" xlink:href="#linear-gradient"/><linearGradient id="linear-gradient-20" x1="347.42" y1="294.92" x2="548.3" y2="294.92" xlink:href="#linear-gradient"/><linearGradient id="linear-gradient-21" x1="365.14" y1="235.82" x2="468.42" y2="235.82" xlink:href="#linear-gradient"/><linearGradient id="linear-gradient-22" x1="365.14" y1="63.62" x2="468.42" y2="63.62" xlink:href="#linear-gradient"/><linearGradient id="linear-gradient-23" x1="347.42" y1="166.17" x2="548.3" y2="166.17" xlink:href="#linear-gradient"/><linearGradient id="linear-gradient-24" x1="365.1" y1="166.17" x2="468.4" y2="166.17" xlink:href="#linear-gradient"/><linearGradient id="linear-gradient-25" x1="141.8" y1="143.97" x2="269.89" y2="143.97" xlink:href="#linear-gradient"/><linearGradient id="linear-gradient-26" x1="235.76" y1="297.62" x2="354.63" y2="297.62" xlink:href="#linear-gradient"/><linearGradient id="linear-gradient-27" x1="193.06" y1="297.62" x2="259.44" y2="297.62" xlink:href="#linear-gradient"/><linearGradient id="linear-gradient-28" x1="348.03" y1="166.55" x2="249.39" y2="162.52" gradientTransform="matrix(1, 0, 0, -1, 0, 322.97)" gradientUnits="userSpaceOnUse"><stop offset="0" stop-color="#f0847c"/><stop offset="0.86" stop-color="#e41521"/></linearGradient></defs><title>logo</title><g id="Layer_2" data-name="Layer 2"><g id="Layer_1-2" data-name="Layer 1"><path class="cls-2" d="M368.3,189.8c20.7,0,38.6-15.7,38.6-36.4S389,117,368.3,117s-38.7,15.7-38.7,36.4,17.9,36.4,38.7,36.4m0-54.8a18.4,18.4,0,1,1-18.4,18.4A18.48,18.48,0,0,1,368.3,135"/><path class="cls-2" d="M445.5,189.8c18.5,0,29.9-9.8,29.9-28V118.5H456v44.1c0,6.4-4.1,10.5-10.5,10.5s-10.4-4.1-10.4-10.5V118.5H415.8v43.3c-.1,18.2,11.4,28,29.7,28"/><path class="cls-2" d="M544.5,143.9c0-14.6-11.6-25.4-26.3-25.4H486.5v69.7h19v-19h8.9l8.6,19h21.3l-11.8-23.4c6.8-4.6,12-11.5,12-20.9m-26.9,8.3H505.5V135.7h12.1c4.3,0,7.1,4.8,7.1,8.3,0,3.3-2.8,8.2-7.1,8.2"/><polygon class="cls-2" points="593.8 149.3 593.3 149.3 553.8 117.4 553.8 188.2 572.8 188.2 572.8 157.5 573.3 157.5 612.8 189.3 612.8 118.5 593.8 118.5 593.8 149.3"/><polygon class="cls-2" points="623.9 188.2 676.2 188.2 676.2 171.1 642.9 171.1 642.9 161.7 667 161.7 667 145 642.9 145 642.9 135.6 676.2 135.6 676.2 118.5 623.9 118.5 623.9 188.2"/><path class="cls-2" d="M267.5,244.5a24.83,24.83,0,0,1,0-17,18.84,18.84,0,0,1,11-11.1,24,24,0,0,1,9.2-1.6,20.13,20.13,0,0,1,9.8,2.5,17.94,17.94,0,0,1,7.2,6.7l-7,4.3a12.6,12.6,0,0,0-4.4-4.2,12.26,12.26,0,0,0-6.1-1.5,12.59,12.59,0,0,0-9.3,3.7,13.37,13.37,0,0,0-3.6,9.7c0,4,1.2,7.2,3.7,9.6a11.92,11.92,0,0,0,9.2,3.6,12.47,12.47,0,0,0,10.7-5.6l6.6,4.8a19.05,19.05,0,0,1-7.2,6.3,21.22,21.22,0,0,1-9.6,2.3,23.81,23.81,0,0,1-9.1-1.6,18.62,18.62,0,0,1-6.7-4.4A15.66,15.66,0,0,1,267.5,244.5Z"/><path class="cls-2" d="M324.9,227.4a15,15,0,0,1,10.9,4.2,15,15,0,0,1,0,21.2,15.26,15.26,0,0,1-10.9,4.3,15,15,0,0,1-10.9-4.2,14.26,14.26,0,0,1-4.4-10.6,14.64,14.64,0,0,1,4.4-10.7A15,15,0,0,1,324.9,227.4Zm5.4,9.2a7.39,7.39,0,0,0-5.4-2.2,7,7,0,0,0-5.4,2.2,8.52,8.52,0,0,0,0,11.2,7.73,7.73,0,0,0,10.8,0,8.23,8.23,0,0,0,0-11.2Z"/><path class="cls-2" d="M361.8,227.4a11.09,11.09,0,0,1,8.3,3.1,10.7,10.7,0,0,1,3.1,8v18h-7.6V240.9a6.8,6.8,0,0,0-1.5-4.7,5.13,5.13,0,0,0-4-1.7,6,6,0,0,0-4.3,1.7,6.43,6.43,0,0,0-1.7,4.7v15.5h-7.6V228.1h7.4v3.3C355.6,228.7,358.3,227.4,361.8,227.4Z"/><path class="cls-2" d="M408.4,228.1l-11.1,28.3h-8.8l-11.1-28.3h8.3l7.3,20.2,7.4-20.2Z"/><path class="cls-2" d="M426.3,250.6a11.13,11.13,0,0,0,7.2-2.7l4.5,4.9a16.34,16.34,0,0,1-11.6,4.3c-4.6,0-8.3-1.4-11-4.1a14.55,14.55,0,0,1-4.1-10.7c0-4.4,1.3-8.1,4-10.8a14.49,14.49,0,0,1,20.2,0,15.21,15.21,0,0,1,3.8,10.7,20.92,20.92,0,0,1-.1,2.6H419.1a6.68,6.68,0,0,0,7.2,5.8Zm-.9-16.5a6,6,0,0,0-6.3,5.4h12.5a6.48,6.48,0,0,0-2.1-4A5.69,5.69,0,0,0,425.4,234.1Z"/><path class="cls-2" d="M460.8,227.4a11.09,11.09,0,0,1,8.3,3.1,10.7,10.7,0,0,1,3.1,8v18h-7.6V240.9a6.8,6.8,0,0,0-1.5-4.7,5.13,5.13,0,0,0-4-1.7,6,6,0,0,0-4.3,1.7,6.43,6.43,0,0,0-1.7,4.7v15.5h-7.6V228.1h7.4v3.3A8.82,8.82,0,0,1,460.8,227.4Z"/><path class="cls-2" d="M500.5,228.1v6.7H490.3v10.4c0,3.2,1.5,4.8,4.4,4.8a11.1,11.1,0,0,0,5.2-1.8l2.8,6a16.24,16.24,0,0,1-9.5,3c-3.5,0-6-1-7.8-2.9s-2.7-4.8-2.7-8.4v-11h-5.4v-6.8h5.4v-8.5h7.6v8.5Z"/><path class="cls-2" d="M510.9,214a4.78,4.78,0,0,1,4.9,4.9,4.6,4.6,0,0,1-1.4,3.4,5,5,0,0,1-3.5,1.4,4.6,4.6,0,0,1-3.4-1.4,4.83,4.83,0,0,1-1.4-3.5,5,5,0,0,1,1.4-3.5A4.18,4.18,0,0,1,510.9,214Zm3.9,14.1v28.3h-7.6V228.1Z"/><path class="cls-2" d="M536.3,227.4a15,15,0,0,1,10.9,4.2,15,15,0,0,1,0,21.2,15.26,15.26,0,0,1-10.9,4.3,15,15,0,0,1-10.9-4.2,14.26,14.26,0,0,1-4.4-10.6,14.64,14.64,0,0,1,4.4-10.7A14.85,14.85,0,0,1,536.3,227.4Zm5.4,9.2a7.39,7.39,0,0,0-5.4-2.2,7,7,0,0,0-5.4,2.2,8.52,8.52,0,0,0,0,11.2,7.73,7.73,0,0,0,10.8,0,8.23,8.23,0,0,0,0-11.2Z"/><path class="cls-2" d="M573.1,227.4a11.09,11.09,0,0,1,8.3,3.1,10.7,10.7,0,0,1,3.1,8v18h-7.6V240.9a6.8,6.8,0,0,0-1.5-4.7,5.13,5.13,0,0,0-4-1.7,6,6,0,0,0-4.3,1.7,6.43,6.43,0,0,0-1.7,4.7v15.5h-7.6V228.1h7.4v3.3A8.93,8.93,0,0,1,573.1,227.4Z"/><path class="cls-2" d="M267.9,273.4h16.5c4.9,0,8.6.9,11.3,2.8s4,4.7,4,8.5a9.27,9.27,0,0,1-1.6,5.4,8.21,8.21,0,0,1-4.1,3.3,10.08,10.08,0,0,1,4.7,3.5,9.52,9.52,0,0,1,1.9,5.7q0,5.85-3.9,8.7c-2.6,2-6.4,3-11.3,3H267.9Zm8.2,7.1v9.7h8.3a10.86,10.86,0,0,0,5.3-1c1.2-.7,1.9-2.1,1.9-4.1,0-3-2.4-4.6-7.3-4.6Zm9.1,16.8h-9.1v9.9h9.1a11.34,11.34,0,0,0,5.5-1.1q1.8-1.05,1.8-3.9a4.19,4.19,0,0,0-1.9-3.9C289.3,297.5,287.6,297.3,285.2,297.3Z"/><path class="cls-2" d="M334.3,286v16.2c0,4.4-1.3,7.6-3.9,9.7a14.67,14.67,0,0,1-9.5,3.1c-4.7,0-8.3-1.5-10.7-4.4a12.47,12.47,0,0,1-2.7-8.4V286h7.6v15.6c0,2.2.5,3.8,1.6,4.8a6.57,6.57,0,0,0,4.2,1.6,5.65,5.65,0,0,0,4.2-1.6,6.59,6.59,0,0,0,1.6-4.8V286Z"/><path class="cls-2" d="M357.3,285.2a12.45,12.45,0,0,1,4,.6l-1.1,7.4a11.59,11.59,0,0,0-4.7-.9,5.8,5.8,0,0,0-4.3,1.7,6.39,6.39,0,0,0-1.6,4.7v15.5H342V285.9h7.4v3C351.1,286.5,353.7,285.2,357.3,285.2Z"/><path class="cls-2" d="M379.8,308.5a11.13,11.13,0,0,0,7.2-2.7l4.5,4.9a16.34,16.34,0,0,1-11.6,4.3c-4.6,0-8.3-1.4-11-4.1a14.55,14.55,0,0,1-4.1-10.7c0-4.4,1.3-8.1,4-10.8a14.49,14.49,0,0,1,20.2,0,15.21,15.21,0,0,1,3.8,10.7,20.92,20.92,0,0,1-.1,2.6H372.6a7.17,7.17,0,0,0,2.5,4.4A8.15,8.15,0,0,0,379.8,308.5Zm-.9-16.6a6,6,0,0,0-6.3,5.4h12.5a6.48,6.48,0,0,0-2.1-4A6,6,0,0,0,378.9,291.9Z"/><path class="cls-2" d="M426.8,286v28.3h-7.4v-3.2a10.57,10.57,0,0,1-8.7,3.9,12.29,12.29,0,0,1-9.5-4.3,15.25,15.25,0,0,1-3.9-10.6,15.08,15.08,0,0,1,3.9-10.6,11.87,11.87,0,0,1,9.5-4.2,10.57,10.57,0,0,1,8.7,3.9v-3.1h7.4Zm-9.2,8.5a6.66,6.66,0,0,0-5.3-2.2,6.8,6.8,0,0,0-5.3,2.2,8.16,8.16,0,0,0-2,5.6,8.34,8.34,0,0,0,2,5.6,6.66,6.66,0,0,0,5.3,2.2,6.8,6.8,0,0,0,5.3-2.2,8.34,8.34,0,0,0,2-5.6A8.16,8.16,0,0,0,417.6,294.5Z"/><path class="cls-2" d="M461.4,286v16.2c0,4.4-1.3,7.6-3.9,9.7A14.67,14.67,0,0,1,448,315c-4.7,0-8.3-1.5-10.7-4.4a12.47,12.47,0,0,1-2.7-8.4V286h7.6v15.6c0,2.2.5,3.8,1.6,4.8A6.57,6.57,0,0,0,448,308a5.65,5.65,0,0,0,4.2-1.6,6.59,6.59,0,0,0,1.6-4.8V286Z"/><g class="cls-3"><path class="cls-2" d="M310.3,151.7v-.4c3.3-2.1,8.6-6.4,8.6-12.9,0-11.8-8.3-19-20.8-19H281.4L337.8,0H0L69.7,147.4V118.3l37.2,26.9,37.2-26.9v70.8H125.2V156.4h-.6l-17.8,12.8L89.1,156.4h-.6v31.1l80.3,169.8,79.6-168.2H208.1V119.4H227V172h29.4l10.2-21.6v38.7h34.7c12.6,0,21.5-8.1,21.5-20.9,0-8.9-5.8-13.7-12.5-16.5M201.7,136.5h-29v9.4h21.2v16.7H172.7V172h29v17.1H153.8V119.4h47.9Zm83.9-1.4h10.2c2.4,0,4.6,3,4.6,5.5s-2.1,5.6-4.6,5.6H285.7V135.1Zm11.5,38.3H285.6V159.3h11.5c3.4,0,6.1,3.3,6.1,7.1.1,3.4-2.6,7-6.1,7"/></g><g class="cls-3"><polygon class="cls-4" points="533.4 313.2 552.9 313.2 525.5 40.9 495.5 94.3 533.4 313.2"/><polygon class="cls-5" points="498 0 485.5 0 485.5 0 497.9 0 498 0"/><polygon class="cls-6" points="442.1 313.2 454.6 313.2 480 121.8 463.7 150.8 442.1 313.2"/><polygon class="cls-7" points="259.4 0.4 248.2 50.3 273.9 153.4 298.1 0.4 259.4 0.4"/><polygon class="cls-8" points="248.6 313.2 273.6 313.2 289.1 214.6 273.9 153.4 248.6 313.2"/><polygon class="cls-9" points="298.1 0.4 273.9 153.4 289.1 214.6 323 0.4 298.1 0.4"/><polygon class="cls-10" points="298.1 0.4 273.9 153.4 289.1 214.6 323 0.4 298.1 0.4"/><polygon class="cls-11" points="353 296.8 354.6 313.2 365.1 313.2 394.6 173.9 353 296.8"/><polygon class="cls-12" points="479.2 0.4 468.4 0.4 432.9 205.5 463.7 150.8 481.7 14.9 479.2 0.4"/><polygon class="cls-13" points="548.3 0.4 521.4 0.4 525.5 40.9 548.3 0.4"/><polygon class="cls-14" points="488.8 55.7 480 121.8 495.5 94.3 488.8 55.7"/><polygon class="cls-15" points="495.5 94.3 525.5 40.9 521.4 0.4 496.1 0.4 488.8 55.7 495.5 94.3"/><polygon class="cls-16" points="495.5 94.3 525.5 40.9 521.4 0.4 496.1 0.4 488.8 55.7 495.5 94.3"/><polygon class="cls-17" points="483.7 0.4 479.2 0.4 481.7 14.9 483.7 0.4"/><polygon class="cls-18" points="483.7 0.4 479.2 0.4 481.7 14.9 483.7 0.4"/><polygon class="cls-19" points="481.7 14.9 463.7 150.8 480 121.8 488.8 55.7 481.7 14.9"/><polygon class="cls-20" points="481.7 14.9 463.7 150.8 480 121.8 488.8 55.7 481.7 14.9"/><polygon class="cls-21" points="488.8 55.7 496.1 0.4 483.7 0.4 481.7 14.9 488.8 55.7"/><polygon class="cls-22" points="488.8 55.7 496.1 0.4 483.7 0.4 481.7 14.9 488.8 55.7"/><polygon class="cls-23" points="488.8 55.7 496.1 0.4 483.7 0.4 481.7 14.9 488.8 55.7"/><polygon class="cls-24" points="431.2 0.4 394.6 173.9 453.3 0.4 431.2 0.4"/><polygon class="cls-25" points="414.3 313.2 432.9 205.5 372.3 313.2 414.3 313.2"/><polygon class="cls-26" points="453.3 0.4 394.6 173.9 365.1 313.2 372.3 313.2 432.9 205.5 468.4 0.4 453.3 0.4"/><polygon class="cls-27" points="453.3 0.4 394.6 173.9 365.1 313.2 372.3 313.2 432.9 205.5 468.4 0.4 453.3 0.4"/><polygon class="cls-28" points="234.5 0.4 141.8 299.1 168.8 357.6 248.2 50.3 235.8 0.4 234.5 0.4"/><polygon class="cls-29" points="235.8 0.4 248.2 50.3 259.4 0.4 235.8 0.4"/><polygon class="cls-30" points="235.8 0.4 248.2 50.3 259.4 0.4 235.8 0.4"/><polygon class="cls-31" points="354.6 313.2 353 296.8 323 0.4 289.1 214.6 313.7 313.2 352.5 313.2 354.6 313.2"/></g><path class="cls-2" d="M310.4,151.8v-.4c3.3-2.1,8.6-6.4,8.6-12.9,0-11.8-8.3-19-20.8-19H266.7l.1,31v38.6h34.7c12.6,0,21.5-8.1,21.5-20.9-.1-8.7-5.8-13.6-12.6-16.4m-24.6-16.5h10.1c2.4,0,4.6,3,4.6,5.5s-2.1,5.6-4.6,5.6H285.8Zm11.5,38.3H285.8V159.5h11.5c3.4,0,6.1,3.3,6.1,7.1,0,3.3-2.7,7-6.1,7"/></g></g></svg>