<svg xmlns="http://www.w3.org/2000/svg" xmlns:xlink="http://www.w3.org/1999/xlink" viewBox="0 0 914.27 339.36"><defs><style>.cls-1{fill:#fff;}.cls-2{fill:#1a1a18;}.cls-3{fill:#00a239;}.cls-4{fill:#0052a2;}.cls-5{fill:#ef7c00;}.cls-6{fill:#ffe100;}.cls-7{fill:#e40026;}.cls-8{stroke:#fff;stroke-miterlimit:10;stroke-width:0.25px;fill:url(#linear-gradient);}</style><linearGradient id="linear-gradient" x1="753.54" y1="137.11" x2="753.54" y2="137.11" gradientUnits="userSpaceOnUse"><stop offset="0" stop-color="#fff"/><stop offset="0.15" stop-color="#f9c9d1"/><stop offset="0.36" stop-color="#f28295"/><stop offset="0.54" stop-color="#ec4a65"/><stop offset="0.71" stop-color="#e82243"/><stop offset="0.83" stop-color="#e5092e"/><stop offset="0.91" stop-color="#e40026"/></linearGradient></defs><title>Asset 1</title><g id="Layer_2" data-name="Layer 2"><g id="Layer_1-2" data-name="Layer 1"><path class="cls-1" d="M863,155.48l-.86-.81A23.15,23.15,0,0,0,880,132.18V83.55a23.14,23.14,0,0,0-23.11-23.1h-46a75.76,75.76,0,0,0-51.4,20.13c-.69-20.32-15.53-35.51-35.15-35.56a35.26,35.26,0,0,0-35.21,35.13c0,.86.08,1.7.13,2.55a22.93,22.93,0,0,0-15,6.7L650,113.6V82.85a23.14,23.14,0,0,0-23.12-23.11h-46.4l0-24.65a16.37,16.37,0,0,0-8.16-14.15L540,2.21a16.32,16.32,0,0,0-16.37,0L491,21a16.39,16.39,0,0,0-8.19,14.19V72.46A16.41,16.41,0,0,0,491,86.64l24.4,14h-5.63a23.12,23.12,0,0,0-23.1,23.1v3.63a97.3,97.3,0,0,0-67.15-26.73h-2.86V82.85a23.14,23.14,0,0,0-23.11-23.11H344.94a23.13,23.13,0,0,0-23.11,23.11V100.6H276.22A23,23,0,0,0,262,105.54a22.93,22.93,0,0,0-13.9-4.66H199.44a21.85,21.85,0,0,0-2.93.21,102.41,102.41,0,0,0-95.44-65.6H75.91c-.42,0-.89-.05-1.4-.05h-50A24.53,24.53,0,0,0,0,59.94V268.46a24.52,24.52,0,0,0,24.5,24.48h50A24.52,24.52,0,0,0,99,268.46V266.9l65.23,65.22a24.58,24.58,0,0,0,17.38,7.24A24.28,24.28,0,0,0,199,332.18l35.33-35.33a24.29,24.29,0,0,0,4.9-7,79.78,79.78,0,0,0,16.53,1.73h50.06c.56,0,1.12,0,1.67-.06h17.4a22.91,22.91,0,0,0,10.05-2.33,22.91,22.91,0,0,0,10.05,2.33h48.62c.31,0,.64,0,1,0h25a97.31,97.31,0,0,0,67.15-26.74v3.62a23.13,23.13,0,0,0,23.1,23.12h48.61a22.87,22.87,0,0,0,10.15-2.38,23,23,0,0,0,9.72,2.17h48.61A23.14,23.14,0,0,0,650,268.16v-31l42.08,52.61a23,23,0,0,0,15.41,8.54c.33,0,.67.07,1,.08q.82.06,1.65.06a23.28,23.28,0,0,0,14.25-4.91l.19-.15,16.51-13.21a23.09,23.09,0,0,0,19.83,11.3h49.91c42.41,0,76.92-35.17,76.92-78.42A79.31,79.31,0,0,0,863,155.48ZM108.18,144.41,92.56,159.67V128.05h8.51a9.73,9.73,0,0,1,9.72,9.73A9.51,9.51,0,0,1,108.18,144.41Zm60.51,61.27.16-.15a97,97,0,0,0,13.93-17.65v24.79a74.08,74.08,0,0,0,.38,7.49Zm250.84-1.63h-9.31v-16h9.31a8,8,0,1,1,0,16Zm341.38-1a16.68,16.68,0,0,0-15.82,11.46l-31.57-39.47L736.7,151.9a16.65,16.65,0,0,0,3.95-6.35,72.36,72.36,0,0,0,24.58,48.23l11.06,9.31Z"/><path class="cls-2" d="M858.61,160.17l-1.53-1.44-11.67-9.88h11.46a16.69,16.69,0,0,0,16.67-16.66V83.55A16.68,16.68,0,0,0,856.87,66.9h-46c-37.35,0-68,29.8-70.34,67.33a16.39,16.39,0,0,0-3.8-5.9l-8.08-8.08C740.55,116,753,97.46,753,82c0-17.38-12.36-30.53-28.77-30.57A28.8,28.8,0,0,0,695.5,80.16a27.08,27.08,0,0,0,2,10.48A16.61,16.61,0,0,0,678.75,94l-35.21,35.2V82.85a16.68,16.68,0,0,0-16.67-16.67H578.26a16.44,16.44,0,0,0-4.62.67l0-31.76a9.53,9.53,0,0,0-4.75-8.23L536.53,8.13a9.54,9.54,0,0,0-9.54,0L494.4,26.92a9.53,9.53,0,0,0-4.77,8.25V72.45a9.54,9.54,0,0,0,4.78,8.25l32.49,18.69a9.58,9.58,0,0,0,9.5,0l25.18-14.5v22.54a16.86,16.86,0,0,0-3.2-.32H509.78a16.69,16.69,0,0,0-16.67,16.66v20.69a90.79,90.79,0,0,0-73.58-37.35h-9.31V82.85a16.68,16.68,0,0,0-16.66-16.67H344.94a16.69,16.69,0,0,0-16.67,16.67v24.56a16.16,16.16,0,0,0-3.43-.37H276.22a16.71,16.71,0,0,0-14.17,7.9,16.65,16.65,0,0,0-14-7.61H199.44a16.56,16.56,0,0,0-7,1.55,96,96,0,0,0-91.37-66.95l-26.56,0h-50a18.07,18.07,0,0,0-18,18V268.46a18.06,18.06,0,0,0,18.05,18h50a18.07,18.07,0,0,0,18-18V251.34l76.26,76.25a18.11,18.11,0,0,0,12.8,5.33,17.92,17.92,0,0,0,12.77-5.29l35.34-35.34a17.84,17.84,0,0,0,5.1-10.21,73.11,73.11,0,0,0,20.88,3h50.06c.47,0,1,0,1.43-.06h17.64a16.55,16.55,0,0,0,10.05-3.4,16.52,16.52,0,0,0,10.05,3.4h48.62l26,0a90.79,90.79,0,0,0,73.58-37.35v20.68A16.68,16.68,0,0,0,509.78,285h48.61a16.57,16.57,0,0,0,10.07-3.41,16.59,16.59,0,0,0,9.8,3.21h48.61a16.68,16.68,0,0,0,16.67-16.67V218.79l53.56,67a16.65,16.65,0,0,0,11.12,6.16l.67.06c.42,0,.83,0,1.24,0a16.92,16.92,0,0,0,10.41-3.65l23.75-19A16.67,16.67,0,0,0,760.91,285h49.91c38.86,0,70.48-32.29,70.48-72A72.84,72.84,0,0,0,858.61,160.17ZM108.18,144.41,92.56,159.67V128.05h8.51a9.73,9.73,0,0,1,9.72,9.73A9.51,9.51,0,0,1,108.18,144.41Zm60.51,61.27.16-.15a97,97,0,0,0,13.93-17.65v24.79a74.08,74.08,0,0,0,.38,7.49Zm250.84-1.63h-9.31v-16h9.31a8,8,0,1,1,0,16Zm341.38-1a16.68,16.68,0,0,0-15.82,11.46l-31.57-39.47L736.7,151.9a16.65,16.65,0,0,0,3.95-6.35,72.36,72.36,0,0,0,24.58,48.23l11.06,9.31Z"/><path class="cls-2" d="M899.81,80.13A14.8,14.8,0,0,1,906.93,82a13.15,13.15,0,0,1,5.41,5.35,14.72,14.72,0,0,1,1.93,7.25,14.53,14.53,0,0,1-1.91,7.19,13.4,13.4,0,0,1-5.34,5.37,14.54,14.54,0,0,1-14.41,0,13.48,13.48,0,0,1-5.35-5.37,14.45,14.45,0,0,1-1.93-7.19,14.64,14.64,0,0,1,1.95-7.25A13.23,13.23,0,0,1,892.7,82,14.79,14.79,0,0,1,899.81,80.13Zm0,2.39a12.22,12.22,0,0,0-5.93,1.57,11.19,11.19,0,0,0-4.51,4.46,12.2,12.2,0,0,0-1.64,6,12,12,0,0,0,1.61,6,11.37,11.37,0,0,0,4.47,4.47,12.07,12.07,0,0,0,12,0,11.28,11.28,0,0,0,4.46-4.47,12,12,0,0,0,0-12,11,11,0,0,0-4.51-4.46A12.27,12.27,0,0,0,899.81,82.52Zm-6.34,20.08V87h5.35a13.06,13.06,0,0,1,4,.43,3.81,3.81,0,0,1,2,1.51,4,4,0,0,1,.72,2.28,4.18,4.18,0,0,1-1.22,3A4.79,4.79,0,0,1,901,95.64a4.21,4.21,0,0,1,1.31.82,18.18,18.18,0,0,1,2.31,3.09l1.9,3h-3.07l-1.38-2.45a12.67,12.67,0,0,0-2.63-3.63,3.21,3.21,0,0,0-2-.53H896v6.61ZM896,93.84h3a4.94,4.94,0,0,0,3-.65,2.15,2.15,0,0,0,.8-1.73,2.1,2.1,0,0,0-.39-1.24,2.23,2.23,0,0,0-1.06-.81,7.86,7.86,0,0,0-2.52-.27H896Z"/><path class="cls-3" d="M220.41,276.07l-70.48-70.49,9.35-9.16.24-.22A82.65,82.65,0,0,0,101.07,55.13H75c-.16,0-.33-.05-.49-.05h-50a4.86,4.86,0,0,0-4.86,4.86V268.46a4.85,4.85,0,0,0,4.86,4.84h50a4.85,4.85,0,0,0,4.86-4.84V114.85h21.7a22.93,22.93,0,0,1,16.33,39l-17.43,17-.23.22a48.61,48.61,0,0,0,0,68.75l78.45,78.44a4.86,4.86,0,0,0,6.87,0L220.41,283A4.85,4.85,0,0,0,220.41,276.07Z"/><path class="cls-1" d="M325,120.24H276.38a3.49,3.49,0,0,0-3.47,3.48v92.65h-17a4,4,0,0,1-4.19-3.69V124a3.47,3.47,0,0,0-3.47-3.47H199.6a3.47,3.47,0,0,0-3.47,3.47v88.69c0,32.67,26.8,59.25,59.75,59.25h50.06a3.91,3.91,0,0,0,.68-.06H325a3.47,3.47,0,0,0,3.47-3.48V123.72A3.48,3.48,0,0,0,325,120.24Z"/><path class="cls-4" d="M419.53,120.3H407.06a3.48,3.48,0,0,0-3.47,3.48v47.64a3.48,3.48,0,0,0,3.47,3.48h12.47c12,0,21.68,9.5,21.68,21.17s-9.73,21.17-21.68,21.17H397V82.85a3.47,3.47,0,0,0-3.47-3.47H344.94a3.47,3.47,0,0,0-3.47,3.47V268.39a3.48,3.48,0,0,0,3.47,3.48h48.62l.19,0h25.78c42.58,0,77.23-34,77.23-75.77S462.11,120.3,419.53,120.3Z"/><path class="cls-5" d="M558.39,120.3H509.78a3.47,3.47,0,0,0-3.47,3.47V268.36a3.47,3.47,0,0,0,3.47,3.48h48.61a3.47,3.47,0,0,0,3.48-3.48V123.77A3.47,3.47,0,0,0,558.39,120.3Z"/><path class="cls-6" d="M626.87,79.38H578.26a3.47,3.47,0,0,0-3.47,3.47V268.16a3.47,3.47,0,0,0,3.47,3.47h48.61a3.47,3.47,0,0,0,3.48-3.47V82.85A3.47,3.47,0,0,0,626.87,79.38Z"/><path class="cls-6" d="M750.8,242.81l-55-68.71,31.53-31.52a3.49,3.49,0,0,0,0-4.92L693,103.29a3.46,3.46,0,0,0-4.91,0l-38.91,38.92A43.85,43.85,0,0,0,647.83,203l59.58,74.48a3.54,3.54,0,0,0,2.33,1.29l.39,0a3.58,3.58,0,0,0,2.17-.76l38-30.38A3.47,3.47,0,0,0,750.8,242.81Z"/><path class="cls-7" d="M724.27,64.66A15.59,15.59,0,0,0,708.7,80.2c0,7.59,5.37,12.7,12.62,14.08,0,.28-.11,12.15.68,13a2.34,2.34,0,0,0,1.69.72h0c3.92,0,16.12-13.49,16.12-25.92C739.84,72,733.33,64.69,724.27,64.66Z"/><path class="cls-7" d="M849.57,169.77,848,168.33l-38.7-32.66,47.53,0a3.46,3.46,0,0,0,3.47-3.46V83.55a3.46,3.46,0,0,0-3.47-3.46h-46c-31.6,0-57.31,26.37-57.31,58.78a59.29,59.29,0,0,0,20.36,44.93l1.1.95,37.58,31.52-51.64,0a3.46,3.46,0,0,0-3.47,3.46v48.62a3.47,3.47,0,0,0,3.47,3.48h49.91c31.59,0,57.29-26.38,57.29-58.79A59.64,59.64,0,0,0,849.57,169.77Z"/><polygon class="cls-8" points="753.54 137.11 753.54 137.1 753.54 137.1 753.54 137.11"/><path class="cls-6" d="M501.41,34.08l7-4a2.4,2.4,0,0,1,2.36.09l7,4c.34.22,1,.82,0,1.44l-7.11,4.09a2.43,2.43,0,0,1-2.45-.14l-6.75-3.89C500.56,35.15,500.55,34.63,501.41,34.08Z"/><path class="cls-6" d="M512.53,27.69l7-4.05a2.4,2.4,0,0,1,2.36.09l7,4c.35.22,1,.81,0,1.44l-7.11,4.08a2.4,2.4,0,0,1-2.44-.13l-6.75-3.89C511.68,28.76,511.67,28.24,512.53,27.69Z"/><path class="cls-6" d="M523.64,21.3l7-4.06a2.41,2.41,0,0,1,2.36.1l7,4c.34.22,1,.81,0,1.44l-7.11,4.08a2.4,2.4,0,0,1-2.44-.13l-6.75-3.89C522.79,22.37,522.79,21.85,523.64,21.3Z"/><path class="cls-6" d="M512.42,40.49l7-4.05a2.41,2.41,0,0,1,2.35.09l7,4c.34.22,1,.82,0,1.44l-7.11,4.09a2.43,2.43,0,0,1-2.45-.14l-6.75-3.89C511.57,41.56,511.56,41,512.42,40.49Z"/><path class="cls-6" d="M523.54,34.1l7-4.05a2.4,2.4,0,0,1,2.36.09l7,4c.35.22,1,.81,0,1.44l-7.11,4.08a2.41,2.41,0,0,1-2.45-.13l-6.75-3.89C522.69,35.17,522.68,34.65,523.54,34.1Z"/><path class="cls-6" d="M534.66,27.71l7-4.06a2.41,2.41,0,0,1,2.36.1l7,4c.35.22,1,.81,0,1.44l-7.11,4.08a2.4,2.4,0,0,1-2.44-.13l-6.75-3.89C533.8,28.78,533.8,28.26,534.66,27.71Z"/><path class="cls-6" d="M523.43,46.9l7-4a2.43,2.43,0,0,1,2.36.09l6.95,4c.34.22,1,.82,0,1.44l-7.11,4.09a2.41,2.41,0,0,1-2.44-.14l-6.75-3.89C522.58,48,522.57,47.45,523.43,46.9Z"/><path class="cls-6" d="M534.55,40.51l7-4a2.4,2.4,0,0,1,2.36.09l7,4c.34.22,1,.81,0,1.44l-7.11,4.08a2.41,2.41,0,0,1-2.45-.13l-6.75-3.89C533.7,41.58,533.69,41.06,534.55,40.51Z"/><path class="cls-6" d="M545.67,34.12l7-4.06a2.41,2.41,0,0,1,2.36.1l7,4c.35.22,1,.81,0,1.44l-7.1,4.08a2.41,2.41,0,0,1-2.45-.13l-6.75-3.89C544.82,35.19,544.81,34.67,545.67,34.12Z"/><path class="cls-7" d="M533.81,53.68l7-4a.73.73,0,0,1,1.15.72v8.36a2.67,2.67,0,0,1-1.4,2l-6.82,4c-.67.38-1.25.46-1.25-.7l0-8A2.67,2.67,0,0,1,533.81,53.68Z"/><path class="cls-7" d="M544.87,47.31l7-4c.49-.3,1.15-.11,1.15.72l0,8.36a2.67,2.67,0,0,1-1.41,2l-6.81,4c-.67.37-1.25.45-1.25-.7l0-8A2.69,2.69,0,0,1,544.87,47.31Z"/><path class="cls-7" d="M555.93,40.93l7-4a.73.73,0,0,1,1.15.72l0,8.36a2.68,2.68,0,0,1-1.41,2l-6.81,4c-.67.38-1.25.46-1.25-.7l-.05-8A2.69,2.69,0,0,1,555.93,40.93Z"/><path class="cls-7" d="M533.83,66.42l6.95-4a.73.73,0,0,1,1.15.72l0,8.36a2.65,2.65,0,0,1-1.41,2l-6.81,4c-.67.38-1.25.46-1.25-.7l-.05-8A2.68,2.68,0,0,1,533.83,66.42Z"/><path class="cls-7" d="M544.89,60.05l7-4c.49-.3,1.15-.11,1.15.72v8.36a2.65,2.65,0,0,1-1.4,2l-6.82,4c-.67.37-1.25.45-1.25-.7l0-8A2.67,2.67,0,0,1,544.89,60.05Z"/><path class="cls-7" d="M556,53.67l7-4a.73.73,0,0,1,1.15.72v8.36a2.64,2.64,0,0,1-1.4,2l-6.81,4c-.68.38-1.25.46-1.25-.7l-.05-8A2.69,2.69,0,0,1,556,53.67Z"/><path class="cls-7" d="M533.84,79.16l7-4c.49-.3,1.15-.11,1.15.72v8.36a2.64,2.64,0,0,1-1.4,2l-6.81,4c-.68.38-1.25.45-1.25-.7l0-8A2.69,2.69,0,0,1,533.84,79.16Z"/><path class="cls-7" d="M544.9,72.79l7-4c.5-.3,1.15-.11,1.15.72l0,8.35a2.68,2.68,0,0,1-1.41,2l-6.81,4c-.67.37-1.25.45-1.25-.71l0-8A2.67,2.67,0,0,1,544.9,72.79Z"/><path class="cls-7" d="M556,66.41l6.95-4c.5-.3,1.15-.11,1.15.72l0,8.36a2.65,2.65,0,0,1-1.41,2l-6.81,4c-.67.38-1.25.45-1.25-.7l0-8A2.68,2.68,0,0,1,556,66.41Z"/><path class="cls-4" d="M529.39,53.67l-7-4a.73.73,0,0,0-1.15.72l0,8.36a2.65,2.65,0,0,0,1.41,2l6.81,4c.67.38,1.25.46,1.25-.7l0-8A2.69,2.69,0,0,0,529.39,53.67Z"/><path class="cls-4" d="M518.32,47.3l-7-4a.74.74,0,0,0-1.16.72v8.36a2.64,2.64,0,0,0,1.41,1.95l6.81,4c.67.37,1.25.45,1.25-.7l0-8A2.67,2.67,0,0,0,518.32,47.3Z"/><path class="cls-4" d="M507.26,40.92l-7-4a.73.73,0,0,0-1.15.72V46a2.64,2.64,0,0,0,1.4,2l6.82,4c.67.38,1.25.46,1.25-.7l0-8A2.67,2.67,0,0,0,507.26,40.92Z"/><path class="cls-4" d="M529.37,66.41l-7-4c-.49-.3-1.15-.11-1.15.72v8.36a2.64,2.64,0,0,0,1.4,2l6.81,4c.68.38,1.25.45,1.25-.7l0-8A2.69,2.69,0,0,0,529.37,66.41Z"/><path class="cls-4" d="M518.31,60l-7-4c-.49-.3-1.15-.11-1.15.72l0,8.35a2.68,2.68,0,0,0,1.41,2l6.81,4c.67.37,1.25.45,1.25-.71l.05-8A2.67,2.67,0,0,0,518.31,60Z"/><path class="cls-4" d="M507.25,53.66l-7-4c-.5-.3-1.15-.11-1.15.72l0,8.36a2.65,2.65,0,0,0,1.41,1.95l6.81,4c.67.38,1.25.45,1.25-.7l.05-8A2.69,2.69,0,0,0,507.25,53.66Z"/><path class="cls-4" d="M529.35,79.15l-7-4c-.5-.3-1.15-.11-1.15.72l0,8.36a2.67,2.67,0,0,0,1.41,2l6.81,4c.67.37,1.25.45,1.25-.7l0-8A2.68,2.68,0,0,0,529.35,79.15Z"/><path class="cls-4" d="M518.29,72.77l-7-4a.73.73,0,0,0-1.15.72v8.36a2.67,2.67,0,0,0,1.4,2l6.82,4c.67.38,1.25.46,1.25-.7l0-8A2.67,2.67,0,0,0,518.29,72.77Z"/><path class="cls-4" d="M507.23,66.4l-7-4c-.49-.3-1.15-.11-1.15.72v8.36a2.65,2.65,0,0,0,1.4,2l6.81,4c.68.37,1.25.45,1.25-.7l.05-8A2.69,2.69,0,0,0,507.23,66.4Z"/></g></g></svg>